<svg width="5" height="6" viewBox="0 0 5 6" fill="none" xmlns="http://www.w3.org/2000/svg">
<path fill-rule="evenodd" clip-rule="evenodd" d="M4.57885 0.573345C4.57346 0.576136 4.56806 0.578928 4.56288 0.581719C4.64126 0.621826 4.7188 0.664351 4.79468 0.709294V4.01373C4.79468 5.10354 3.92084 5.98655 2.8427 5.98655C1.76374 5.98655 0.889893 5.10354 0.889893 4.01373C0.889893 2.92392 1.76382 2.04007 2.8427 2.04007C3.26045 2.04007 3.64734 2.17265 3.96503 2.39945V0.799347C3.96503 0.799347 4.29522 0.710128 4.59623 0.564209C4.59062 0.567254 4.58473 0.5703 4.57885 0.573345ZM1.682 3.98964C1.682 4.62834 2.19305 5.14615 2.82342 5.14615C3.45388 5.14615 3.96501 4.62834 3.96493 3.98964C3.96493 3.3501 3.45388 2.83229 2.82342 2.83229C2.19314 2.83229 1.682 3.3501 1.682 3.98964Z" fill="white"/>
</svg>